<?xml version="1.0" encoding="UTF-8"?>
<!-- Created with Inkscape (http://www.inkscape.org/) -->
<svg width="303" height="302" version="1.1" viewBox="0 0 303 302" xmlns="http://www.w3.org/2000/svg">
 <g>
  <path d="m137.96 235.35c-4.4358-0.83614-12.436-3.6273-14.801-5.1639-1.2656-0.82225-3.0016-2.8496-3.8577-4.5051-1.318-2.5487-1.3627-3.5977-0.29152-6.8433 0.97893-2.9662 1.5586-3.5896 2.5629-2.7561 0.99904 0.82912 1.0332 1.5009 0.14836 2.9177-3.1385 5.0255 3.9829 9.9958 17.295 12.071 9.8006 1.5276 35.75 0.65794 42.314-1.4181 5.7773-1.8271 9.6303-5.1395 9.6303-8.2791 0-2.944-1.4316-3.7592-4.0967-2.3329-1.1759 0.62934 1.4503-2.401 5.836-6.734 9.2711-9.1596 14.148-18.08 16.688-30.526 2.8586-14.007 1.5671-32.951-2.8346-41.577-3.9404-7.7223-11.155-13.123-15.633-11.702-1.2894 0.40923-2.555-0.58651-4.6179-3.6332-3.9687-5.8613-7.4057-8.1523-12.23-8.1523-5.9106 0-9.1115 2.4459-9.1115 6.9624 0 7.9814-0.82138 1.9436-1.9304-14.19-2.5185-36.638-4.192-47.108-8.2214-51.433-3.7747-4.0517-8.7689-2.2196-11.322 4.1534-2.5546 6.3769-3.3145 12.656-5.0523 41.749-0.86964 14.559-1.782 26.671-2.0276 26.917s-0.44638-1.4816-0.44638-3.8379c0-3.6434-0.58079-4.8651-3.8824-8.1667-3.4573-3.4573-4.4153-3.8799-8.75-3.8601-5.2079 0.0238-7.8986 1.548-10.777 6.1051-2.5911 4.1019-3.5408 8.3505-5.0866 22.755-0.78984 7.3605-1.6217 13.568-1.8486 13.795s-0.72795-2.5329-1.1135-6.1328c-0.38552-3.5999-1.0518-6.5453-1.4806-6.5453-2.1252 0-10.079 8.4807-11.539 12.303-2.7779 7.2738 0.49374 21.414 7.6811 33.197 4.3364 7.1094 12.368 17.422 16.645 21.373l3.6515 3.3726-3.5-2.0636c-17.738-10.458-31-32.086-31-50.554 0-9.2851 5.0882-16.364 15.243-21.206 3.3352-1.5904 3.5301-1.9808 4.5232-9.0581 2.0094-14.32 7.8284-21.363 17.65-21.363 3.8136 0 6.0587 0.6379 8.7991 2.5 2.0235 1.375 3.9068 2.5 4.185 2.5s0.26893-2.1375-0.0208-4.75c-0.28968-2.6125-0.0745-13.3 0.47809-23.75 1.3755-26.01 3.7772-33.112 12.034-35.586 5.5573-1.665 9.4508 0.76602 12.633 7.4067 3.0356 6.3341 4.4905 24.582 5.0159 37.797l0.66072 16.618 3.7405-0.94944c5.422-1.3763 11.188 0.45835 14.967 4.7619 1.7002 1.9365 3.0914 4.1802 3.0914 4.9861 0 1.0026 1.0846 1.4652 3.4349 1.4652 13.44 0 21.863 14.697 23.251 40.573 1.0672 19.897-4.229 35.094-16.1 46.199-4.613 4.3152-6.1282 6.341-5.4931 7.3439 1.8822 2.972 0.94181 7.0508-2.395 10.388-5.3993 5.3993-11.492 6.7339-32.197 7.053-9.9 0.1526-19.125 0.0654-20.5-0.19379zm1.6647-35.862c-0.96406-2.75-2.4054-9.275-3.2029-14.5-1.6619-10.888-1.9922-28.93-0.50226-27.44 1.1618 1.1618 3.5115 15.743 5.0846 31.553 1.4174 14.245 1.0205 17.234-1.3795 10.388zm17.987 1.9485c-1.1247-5.042-1.975-32.702-1.1968-38.931 0.62928-5.0366 0.90632-5.6298 1.8541-3.9694 1.414 2.4772 2.2216 40.021 0.93359 43.4l-0.93318 2.4484zm17.379-1.5916c-0.029-4.4304 2.2738-28.628 3.5789-37.607 1.1894-8.1829 2.3906-4.1414 2.3775 8-0.013 12.074-2.4394 28.253-4.862 32.42-0.86387 1.4857-1.0697 0.95654-1.0944-2.8133z"/>
 </g>
</svg>
