<?xml version="1.0" encoding="UTF-8"?>
<!-- Created with Inkscape (http://www.inkscape.org/) -->
<svg width="294" height="295" version="1.1" viewBox="0 0 294 295" xmlns="http://www.w3.org/2000/svg">
 <g transform="translate(284.01 17.865)">
  <path d="m-141.12 217.25c-15.379-2.7912-23.227-9.3261-19.919-16.586 1.0354-2.2724 0.781-2.5648-4.4684-5.1352-9.4818-4.6428-18.066-12.8-29.303-27.846-5.7487-7.6974-14.63-18.019-19.795-23.006-14.008-13.524-15.558-16.82-11.028-23.457 4.423-6.4798 13.499-8.8025 21.437-5.486 1.9923 0.83245 6.5353 4.095 10.096 7.25 18.208 16.136 20.218 17.116 20.218 9.8572 0-2.4086-2.0476-14.446-4.5502-26.75-4.9945-24.555-6.7196-43.493-4.5584-50.042 2.4626-7.4617 9.7905-10.689 15.77-6.9454 6.111 3.8259 13.167 22.847 17.386 46.866 0.70031 3.9875 1.6512 7.25 2.1131 7.25 0.46192 0 0.85374-8.4375 0.87073-18.75 0.0303-18.382 0.92479-29.658 2.9493-37.176 3.6548-13.573 16.482-17.014 21.877-5.8686 1.1785 2.4345 2.1428 5.1843 2.1428 6.1107 0 0.92635 0.45 1.6843 1 1.6843s1-0.40241 1-0.89424c0-0.49183 1.3055-2.2918 2.9012-4 5.7085-6.111 14.748-3.4199 18.119 5.3942 2.1346 5.581 4.0414 17.942 4.6664 30.25 0.34214 6.7375 0.89447 12.25 1.2274 12.25s1.3485-4.0347 2.2568-8.966c2.9265-15.888 7.6814-23.034 15.327-23.034 3.3685 0 7.2652 4.2213 8.1244 8.8011 0.73763 3.9319-0.0364 25.974-1.5789 44.961-0.84365 10.385-0.74628 13.217 0.63617 18.5 1.0216 3.9042 1.6413 10.354 1.6564 17.238 0.0407 18.555-4.38 30.569-15.392 41.832-6.5516 6.7004-6.6703 6.9166-6.1809 11.258 0.45753 4.0592 0.2066 4.7025-3.0224 7.7478-5.4841 5.1721-12.508 6.7912-31.241 7.201-8.8 0.19252-18.131-0.0368-20.737-0.50961zm33.259-4.0913c9.7801-1.2263 16.126-3.7086 18.416-7.2035 2.076-3.1684 1.0504-6.061-1.9461-5.4882-1.6108 0.30793-0.23806-1.536 4.9726-6.6794 7.8565-7.7552 13.218-17.122 16.066-28.067 1.9107-7.3428 2.173-27.791 0.4622-36.032-0.94326-4.5436-0.93333-10.926 0.0457-29.427 0.68764-12.994 0.94034-25.692 0.56156-28.218-1.476-9.8423-7.7705-10.062-12.182-0.42581-1.3566 2.9632-4.0341 12.974-5.95 22.245-1.9159 9.2717-3.8413 17.709-4.2786 18.749-0.5074 1.2069-1.2396-2.9537-2.0237-11.5-4.0991-44.675-6.8548-55.891-13.732-55.891-1.2727 0-3.3424 1.291-4.7482 2.9617-3.3878 4.0261-4.4716 11.794-5.2823 37.859-0.36471 11.726-1.0105 20.951-1.4351 20.5-0.42458-0.4511-1.25-11.845-1.8342-25.32-1.4959-34.501-4.2591-43.691-12.514-41.62-5.6669 1.4223-8.1325 10.342-10.122 36.62-1.57 20.734-2.2506 27.677-3.1862 32.5l-0.58197 3-0.94133-2.5c-0.51774-1.375-3.429-11.05-6.4695-21.5-8.2029-28.193-12.434-36.074-18.965-35.326-4.1907 0.47935-6.3506 5.4431-6.3526 14.599-8.5e-4 3.9998 1.7984 19.683 3.9984 34.851 4.3792 30.193 4.7928 36.474 2.5253 38.356-2.2458 1.8638-8.4194-1.6085-19.473-10.952-10.49-8.868-14.258-11.03-19.204-11.02-5.0422 0.01-11.641 5.2264-11.813 9.3386-0.0195 0.46487 5.2713 6.3149 11.757 13 7.2615 7.4844 14.649 16.381 19.226 23.155 9.5495 14.132 22.108 26.796 31.482 31.746 3.85 2.033 6.2606 3.7094 5.357 3.7253-1.6191 0.0286-2.857 1.9672-2.857 4.4744 0 2.3452 4.9593 6.2833 9.521 7.5605 10.301 2.8842 27.516 3.6856 41.501 1.9321zm-31.781-30.438c-2.4719-5.8932-4.3127-17.207-4.9222-30.25-0.41855-8.9583-0.27991-13.25 0.42806-13.25 0.57591 0 1.538 2.819 2.138 6.2644 1.6696 9.5874 4.2756 34.508 3.9256 37.54l-0.31118 2.6957zm17.39-1.14c-2.19-12.699-1.802-46.203 0.48759-42.111 1.4318 2.5586 2.9496 26.362 2.2477 35.251-0.76175 9.6474-1.8039 12.261-2.7353 6.86zm17.368 1.3172c0-5.8863 4.0802-41.998 4.9135-43.487 1.5988-2.8568 2.3881 11.288 1.2327 22.09-1.1434 10.689-3.5796 21.549-5.1977 23.17-0.59829 0.59928-0.94843-0.0552-0.94843-1.7728z" fill="#333"/>
 </g>
</svg>
