<?xml version="1.0" encoding="UTF-8" standalone="no"?>
<!-- Created with Inkscape (http://www.inkscape.org/) -->

<svg
   version="1.1"
   id="svg3505"
   width="304"
   height="298"
   viewBox="0 0 304 298"
   sodipodi:docname="rock.svg"
   inkscape:version="1.1.2 (b8e25be833, 2022-02-05)"
   xmlns:inkscape="http://www.inkscape.org/namespaces/inkscape"
   xmlns:sodipodi="http://sodipodi.sourceforge.net/DTD/sodipodi-0.dtd"
   xmlns="http://www.w3.org/2000/svg"
   xmlns:svg="http://www.w3.org/2000/svg">
  <defs
     id="defs3509" />
  <sodipodi:namedview
     id="namedview3507"
     pagecolor="#ffffff"
     bordercolor="#666666"
     borderopacity="1.0"
     inkscape:pageshadow="2"
     inkscape:pageopacity="0.0"
     inkscape:pagecheckerboard="0"
     showgrid="false"
     inkscape:zoom="2.1610738"
     inkscape:cx="121.46739"
     inkscape:cy="139.74534"
     inkscape:window-width="1858"
     inkscape:window-height="1057"
     inkscape:window-x="54"
     inkscape:window-y="-8"
     inkscape:window-maximized="1"
     inkscape:current-layer="g3511" />
  <g
     inkscape:groupmode="layer"
     inkscape:label="Image"
     id="g3511">
    <g
       id="g3515"
       transform="translate(245.71118,21.748447)">
      <path
         style="fill:#000000;fill-opacity:1"
         d="m -103.74845,189.62616 c -1.1,-0.25102 -4.475,-0.94439 -7.5,-1.54081 -11.06406,-2.18143 -17.60037,-8.44311 -15.38603,-14.73955 1.22437,-3.48147 2.9728,-2.88507 2.57343,0.87782 -0.22511,2.121 0.38994,3.59638 2.19765,5.27171 3.48232,3.22731 8.31321,4.57087 21.28486,5.91976 21.699913,2.2565 42.756273,-1.46041 45.993733,-8.11892 1.58613,-3.2622 0.60374,-5.391 -2.23718,-4.84792 -1.70564,0.32605 -0.42428,-1.41055 5.01598,-6.79811 13.55546,-13.42414 18.12511,-26.8138 17.34119,-50.81194 -0.48967,-14.990509 -1.36785,-18.516529 -6.44153,-25.863589 -2.89216,-4.18807 -9.78356,-8.0055 -12.95479,-7.1762 -1.67841,0.43891 -2.68713,-0.37912 -4.99521,-4.05092 -3.44978,-5.48807 -9.64196,-9.00681 -14.04666,-7.98209 -4.45206,1.03575 -7.34209,3.26615 -7.38196,5.69709 -0.0257,1.56852 -0.7615,0.72942 -2.48854,-2.83797 -3.46552,-7.1584 -6.43315,-9.62856 -12.23774,-10.18631 -4.17033,-0.40072 -5.269523,-0.0924 -8.068553,2.26277 -4.22558,3.55559 -6.05304,7.30691 -5.10946,10.48846 1.3739,4.63248 0.86571,5.52515 -1.06518,1.87105 -3.21663,-6.08734 -7.3596,-8.87105 -13.20266,-8.87105 -4.45435,0 -5.4366,0.40441 -8.26413,3.40246 -4.06212,4.3071 -6.10593,11.5811 -7.47325,26.59754 -0.57593,6.324999 -1.10192,11.949999 -1.16887,12.499999 -0.23684,1.94557 -1.65017,-5.05398 -1.76679,-8.75 -0.0651,-2.062499 -0.50495,-3.749999 -0.97752,-3.749999 -1.62291,0 -10.20864,8.230539 -11.80405,11.315709 -1.23563,2.38945 -1.45699,4.73351 -0.97993,10.37707 1.25432,14.83866 7.4372,27.40246 20.3003,41.25086 7.7692,8.3643 7.8012,8.42068 3.4062,6 -7.1247,-3.92414 -18.12111,-15.51342 -22.24434,-23.44364 -6.08314,-11.69969 -8.97101,-25.50793 -6.92437,-33.10857 1.47178,-5.46578 6.92456,-11.527989 13.43511,-14.936699 l 5.4276,-2.84172 0.50503,-5.5565 c 0.76873,-8.45787 2.73188,-13.79278 6.73578,-18.30461 3.37269,-3.80055 4.08103,-4.13001 9.76325,-4.54102 5.02899,-0.36376 6.75009,-0.0579 9.60596,1.70713 l 3.47925,2.15029 1.82671,-3.10322 c 2.73346,-4.64362 7.17526,-6.96508 13.326713,-6.96508 6.11357,0 10.59158,2.31846 13.27117,6.87106 1.74141,2.95864 1.82908,2.985 5.21788,1.56907 4.68556,-1.95775 8.11513,-1.81016 13.01113,0.55996 2.67431,1.29461 4.92459,3.41095 6.37971,6 1.87249,3.33163 2.7694,3.99991 5.36837,3.99991 4.74712,0 11.21796,3.62226 14.22667,7.96383 3.60873,5.20739 7.21549,17.254819 8.43449,28.173129 2.36099,21.1469 -3.39094,39.61265 -15.96529,51.25428 -5.67725,5.25613 -5.72739,5.35209 -5.20729,9.96637 0.48848,4.33381 0.27927,4.89105 -2.99623,7.98024 -5.48288,5.17101 -12.50826,6.79085 -31.24061,7.20314 -8.8,0.19368 -16.900003,0.14676 -18.000003,-0.10427 z m -1.40405,-34.91342 c -2.53369,-6.18793 -4.30103,-17.49229 -4.83439,-30.92207 -0.37785,-9.51402 -0.22336,-13.69566 0.4897,-13.25496 1.33119,0.82272 2.75963,9.25328 4.80021,28.33054 1.75293,16.38807 1.6226,20.92181 -0.45552,15.84649 z m 17.550763,-0.14854 c -1.14523,-5.1917 -1.94818,-30.73531 -1.18899,-37.82453 0.62557,-5.84148 0.92315,-6.63363 1.8769,-4.9962 1.45246,2.49366 2.2582,41.56424 0.90696,43.97878 -0.82305,1.47071 -1.0516,1.30476 -1.59487,-1.15805 z m 17.36474,-0.42476 c 0.0222,-6.6777 3.90273,-40.97423 4.82201,-42.61689 1.59452,-2.84925 2.36448,11.20032 1.20813,22.0451 -1.60221,15.02637 -6.06222,30.24166 -6.03014,20.57179 z"
         id="path3517" />
    </g>
  </g>
</svg>
