<?xml version="1.0" encoding="UTF-8"?>
<!-- Created with Inkscape (http://www.inkscape.org/) -->
<svg width="308" height="314" version="1.1" viewBox="0 0 308 314" xmlns="http://www.w3.org/2000/svg">
 <path d="m150.46 243.56c-19.901-2.8377-27.04-7.1864-26.332-16.039 0.32085-4.0101 0.18442-4.223-4.1683-6.5055-7.4001-3.8805-17.968-15.253-22.754-24.485-6.7039-12.933-9.1415-27.914-5.8312-35.837 2.0324-4.8643 8.5735-10.801 15.551-14.115 4.4757-2.1256 6.0308-3.3909 6.022-4.8998-7e-3 -1.1188-1.3105-7.6593-2.8978-14.534-6.8354-29.607-7.8502-46.315-3.209-52.833 2.8193-3.9593 5.3939-5.3665 9.8188-5.3665 7.2913 0 11.932 7.9434 17.296 29.605l3.691 14.905 0.58727-17.405c0.81055-24.022 3.1923-33.544 9.4096-37.618 3.853-2.5246 9.6543-2.2575 12.679 0.58376 6.0772 5.7092 8.3976 17.351 8.854 44.421 0.27471 16.291 0.34277 16.772 2.2832 16.115 1.1-0.37231 4.3877-0.88433 7.306-1.1378 4.4323-0.38497 5.9172-0.0564 9.0172 1.9951 2.0411 1.3508 4.5932 4.0939 5.6714 6.0958 1.7671 3.2814 2.3664 3.6399 6.0849 3.6399 12.312 0 21.046 16.39 22.116 41.5 0.86954 20.411-3.7754 33.846-15.806 45.716-3.7438 3.6939-6.3754 6.983-5.8478 7.309 1.4251 0.88079 1.1614 5.1828-0.51666 8.4278-3.3969 6.5689-13.977 9.9334-33.024 10.502-7.15 0.21349-14.35 0.19567-16-0.0396zm37.472-7.814c5.1338-1.9165 9.0285-5.199 9.0285-7.6094 0-2.4633-0.93212-2.9686-3.6028-1.9533-1.3184 0.50128-2.3972 0.72482-2.3972 0.49677 0-0.22806 3.5421-3.9568 7.8714-8.2861 8.4486-8.4486 13.576-17.352 16.269-28.25 1.9759-7.9951 1.7257-30.947-0.41491-38.064-2.9566-9.8298-9.7092-16.936-16.093-16.936-1.3565 0-2.6416 0.52586-2.8558 1.1686-0.21423 0.64271-1.5589-0.81979-2.9882-3.25-3.8533-6.5519-7.0109-9.0765-12.065-9.6462-3.8858-0.43798-4.8283-0.12007-8.0623 2.7194-2.4675 2.1665-3.6671 4.0787-3.6774 5.8618-8e-3 1.4555-0.40669 3.2643-0.88503 4.0194-0.94859 1.4975-1.4534-3.5288-3.151-31.373-1.9572-32.103-5.168-43.326-12.109-42.327-2.9694 0.42731-6.4272 5.6777-7.7252 11.73-1.012 4.719-2.3284 21.649-3.6873 47.422-0.37191 7.054-1.0424 12.454-1.4901 12-0.44765-0.45395-3.7396-10.95-7.3155-23.325-6.8993-23.876-8.6579-28.822-11.844-33.306-2.5198-3.5466-6.2463-3.3153-9.132 0.56677-4.0741 5.4808-3.6157 11.922 3.8606 54.239 2.5696 14.545 4.3509 37.201 2.7125 34.5-0.50042-0.825-1.4826-4.875-2.1826-9-0.70003-4.125-1.4725-7.8398-1.7166-8.2552-0.59253-1.0082-7.8993 4.116-12.568 8.8138-2.0618 2.0746-4.1322 5.1612-4.601 6.8592-1.1201 4.0565 0.29591 15.408 2.897 23.224 3.5461 10.656 14.842 25.882 25.061 33.779 2.7981 2.1624 3.5651 3.3308 2.9538 4.5-1.1423 2.1849 0.3568 5.6523 3.2686 7.5601 5.1337 3.3637 14.331 4.4929 33.669 4.1337 14.166-0.26312 19.548-0.73467 22.972-2.0129zm-42.178-27.654c-4.5945-9.86-7.5521-44.948-3.7888-44.948 1.9057 0 6.3776 33.386 5.7761 43.122l-0.33228 5.3783zm17.775 1.3705c-1.1335-2.9539-2.5255-27.883-1.9616-35.129 0.71943-9.2432 1.2962-11.686 2.4799-10.502 1.6912 1.6912 3.1378 19.3 2.6784 32.601-0.42207 12.221-1.6254 17.126-3.1968 13.031zm17.471-4.4618c-0.0384-6.3677 2.3224-31.829 3.5797-38.607 0.33157-1.7875 0.98239-3.25 1.4463-3.25 4.1133 0 1.2629 36.992-3.5306 45.82-1.3986 2.5757-1.4568 2.4214-1.4953-3.9631z"/>
</svg>
